<svg width="64" height="64" viewBox="0 0 64 64" fill="none" xmlns="http://www.w3.org/2000/svg">
<path d="M18 11.5508C19.1045 11.5508 19.9999 12.4463 20 13.5508V51.5508C20 52.6554 19.1046 53.5508 18 53.5508H10C8.89543 53.5508 8 52.6554 8 51.5508V13.5508C8.00012 12.4463 8.89551 11.5508 10 11.5508H18ZM32 11.5508C33.1045 11.5508 33.9999 12.4463 34 13.5508V51.5508C34 52.6554 33.1046 53.5508 32 53.5508H24C22.8954 53.5508 22 52.6554 22 51.5508V13.5508C22.0001 12.4463 22.8955 11.5508 24 11.5508H32ZM43.6592 10.0684C44.7259 9.78252 45.8223 10.4158 46.1084 11.4824L55.9443 48.1885C56.2299 49.2552 55.5961 50.3519 54.5293 50.6377L46.8027 52.708C45.7358 52.9939 44.6384 52.3609 44.3525 51.2939L34.5176 14.5889C34.2317 13.522 34.8649 12.4257 35.9316 12.1397L43.6592 10.0684ZM14 47.5508C12.8955 47.5508 12.0001 48.4463 12 49.5508C12 50.6554 12.8954 51.5508 14 51.5508C15.1046 51.5508 16 50.6554 16 49.5508C15.9999 48.4463 15.1045 47.5508 14 47.5508ZM28 47.5508C26.8955 47.5508 26.0001 48.4463 26 49.5508C26 50.6554 26.8954 51.5508 28 51.5508C29.1046 51.5508 30 50.6554 30 49.5508C29.9999 48.4463 29.1045 47.5508 28 47.5508ZM51.5625 47.291C51.2765 46.2244 50.18 45.5913 49.1133 45.877C48.0463 46.1628 47.4133 47.2602 47.6992 48.3272C47.9853 49.3938 49.0817 50.0271 50.1484 49.7412C51.2153 49.4553 51.8484 48.3579 51.5625 47.291ZM10.7021 14.3574C10.4594 14.0787 10.0004 14.2506 10 14.6201V34.5508C10 35.6554 10.8954 36.5508 12 36.5508H16C17.1046 36.5508 18 35.6554 18 34.5508V14.6201C17.9996 14.2506 17.5406 14.0787 17.2979 14.3574L15.5088 16.415C14.7115 17.3317 13.2885 17.3317 12.4912 16.415L10.7021 14.3574ZM24.7021 14.3574C24.4594 14.0787 24.0004 14.2506 24 14.6201V34.5508C24 35.6554 24.8954 36.5508 26 36.5508H30C31.1046 36.5508 32 35.6554 32 34.5508V14.6201C31.9996 14.2506 31.5406 14.0787 31.2979 14.3574L29.5088 16.415C28.7115 17.3317 27.2885 17.3317 26.4912 16.415L24.7021 14.3574ZM44.4541 13.0332C44.3582 12.6763 43.8694 12.6289 43.707 12.9609L42.5117 15.4121C41.9788 16.5037 40.604 16.8724 39.5967 16.1934L37.3369 14.6689C37.0304 14.4624 36.6314 14.7465 36.7266 15.1035L41.8848 34.3555C42.1706 35.4224 43.2671 36.0553 44.334 35.7695L48.1982 34.7344C49.2649 34.4484 49.898 33.3519 49.6123 32.2852L44.4541 13.0332ZM16 31.5508C16.5522 31.5508 16.9999 31.9986 17 32.5508C17 33.1031 16.5523 33.5508 16 33.5508H12C11.4477 33.5508 11 33.1031 11 32.5508C11.0001 31.9986 11.4478 31.5508 12 31.5508H16ZM30 31.5508C30.5522 31.5508 30.9999 31.9986 31 32.5508C31 33.1031 30.5523 33.5508 30 33.5508H26C25.4477 33.5508 25 33.1031 25 32.5508C25.0001 31.9986 25.4478 31.5508 26 31.5508H30ZM46.9033 29.9053C47.4368 29.7623 47.986 30.0788 48.1289 30.6123C48.2715 31.1455 47.955 31.6939 47.4219 31.8369L43.5576 32.8721C43.0243 33.0149 42.476 32.6983 42.333 32.165C42.1901 31.6316 42.5067 31.0834 43.04 30.9404L46.9033 29.9053ZM16 28.5508C16.5522 28.5508 16.9999 28.9986 17 29.5508C17 30.1031 16.5523 30.5508 16 30.5508H12C11.4477 30.5508 11 30.1031 11 29.5508C11.0001 28.9986 11.4478 28.5508 12 28.5508H16ZM30 28.5508C30.5522 28.5508 30.9999 28.9986 31 29.5508C31 30.1031 30.5523 30.5508 30 30.5508H26C25.4477 30.5508 25 30.1031 25 29.5508C25.0001 28.9986 25.4478 28.5508 26 28.5508H30ZM46.127 27.0068C46.6604 26.8639 47.2095 27.1805 47.3525 27.7139C47.4955 28.2473 47.178 28.7955 46.6445 28.9385L42.7812 29.9746C42.2478 30.1175 41.6996 29.8 41.5566 29.2666C41.414 28.7333 41.7303 28.1849 42.2637 28.042L46.127 27.0068ZM16 25.5508C16.5522 25.5508 16.9999 25.9986 17 26.5508C17 27.1031 16.5523 27.5508 16 27.5508H12C11.4477 27.5508 11 27.1031 11 26.5508C11.0001 25.9986 11.4478 25.5508 12 25.5508H16ZM30 25.5508C30.5522 25.5508 30.9999 25.9986 31 26.5508C31 27.1031 30.5523 27.5508 30 27.5508H26C25.4477 27.5508 25 27.1031 25 26.5508C25.0001 25.9986 25.4478 25.5508 26 25.5508H30ZM45.3506 24.1094C45.884 23.9664 46.4322 24.283 46.5752 24.8164C46.7181 25.3499 46.4016 25.8981 45.8682 26.041L42.0049 27.0762C41.4714 27.2191 40.9232 26.9026 40.7803 26.3691C40.6374 25.8357 40.9539 25.2875 41.4873 25.1445L45.3506 24.1094ZM16 22.5508C16.5522 22.5508 16.9999 22.9986 17 23.5508C17 24.1031 16.5523 24.5508 16 24.5508H12C11.4477 24.5508 11 24.1031 11 23.5508C11.0001 22.9986 11.4478 22.5508 12 22.5508H16ZM30 22.5508C30.5522 22.5508 30.9999 22.9986 31 23.5508C31 24.1031 30.5523 24.5508 30 24.5508H26C25.4477 24.5508 25 24.1031 25 23.5508C25.0001 22.9986 25.4478 22.5508 26 22.5508H30ZM44.5742 21.2119C45.1077 21.069 45.6559 21.3855 45.7988 21.9189C45.9416 22.4523 45.6252 23.0006 45.0918 23.1436L41.2285 24.1787C40.6951 24.3216 40.147 24.005 40.0039 23.4717C39.861 22.9382 40.1775 22.39 40.7109 22.2471L44.5742 21.2119ZM16 19.5508C16.5522 19.5508 16.9999 19.9986 17 20.5508C17 21.1031 16.5523 21.5508 16 21.5508H12C11.4477 21.5508 11 21.1031 11 20.5508C11.0001 19.9986 11.4478 19.5508 12 19.5508H16ZM30 19.5508C30.5522 19.5508 30.9999 19.9986 31 20.5508C31 21.1031 30.5523 21.5508 30 21.5508H26C25.4477 21.5508 25 21.1031 25 20.5508C25.0001 19.9986 25.4478 19.5508 26 19.5508H30ZM43.7979 18.3135C44.3312 18.1706 44.8794 18.4872 45.0225 19.0205C45.1654 19.554 44.8489 20.1022 44.3154 20.2451L40.4521 21.2813C39.9187 21.4242 39.3705 21.1067 39.2275 20.5732C39.0848 20.0399 39.4012 19.4915 39.9346 19.3486L43.7979 18.3135Z" fill="#052E58"/>
</svg>
