<svg width="51" height="51" viewBox="0 0 51 51" fill="none" xmlns="http://www.w3.org/2000/svg">
<path d="M41.2061 9.00488C43.3194 9.11212 45 10.86 45 13V32.1768L44.9951 32.3818C44.8917 34.4273 43.2514 36.0671 41.2061 36.1709L41 36.1768H31V41.0293H36.5146C36.7826 41.0293 37 41.2467 37 41.5146C37 41.7827 36.7827 42 36.5146 42H14.4854C14.2173 42 14 41.7827 14 41.5146C14 41.2467 14.2174 41.0293 14.4854 41.0293H19V36.1768H9L8.79395 36.1709C6.74859 36.0671 5.10832 34.4273 5.00488 32.3818L5 32.1768V13C5 10.7909 6.79086 9 9 9H41L41.2061 9.00488ZM9 11C7.89543 11 7 11.8954 7 13V32.1768C7.00016 33.2812 7.89553 34.1768 9 34.1768H41C42.1045 34.1768 42.9998 33.2812 43 32.1768V13C43 11.8954 42.1046 11 41 11H9ZM20.0293 29.3828C20.5652 29.3828 20.9997 29.8167 21 30.3525C21 30.8886 20.5653 31.3232 20.0293 31.3232H10.9707C10.4347 31.3232 10 30.8886 10 30.3525C10.0003 29.8167 10.4348 29.3828 10.9707 29.3828H20.0293ZM28 31.3232H24V22.5879H28V31.3232ZM34 31.3232H30V20.6475H34V31.3232ZM40 31.3232H36V17.7354H40V31.3232ZM20.0293 25.5C20.5653 25.5 21 25.9347 21 26.4707C20.9999 27.0067 20.5653 27.4414 20.0293 27.4414H10.9707C10.4347 27.4414 10.0001 27.0067 10 26.4707C10 25.9347 10.4347 25.5 10.9707 25.5H20.0293ZM14.5 13.8525C16.985 13.8525 18.9995 15.8079 19 18.2197C19 20.6319 16.9853 22.5879 14.5 22.5879L14.2686 22.582C11.8908 22.4651 10 20.5566 10 18.2197C10.0005 15.8079 12.015 13.8525 14.5 13.8525ZM14.5 14.8525C12.539 14.8525 11.0005 16.3881 11 18.2197C11 20.0517 12.5387 21.5879 14.5 21.5879C16.4613 21.5879 18 20.0517 18 18.2197H14.5V14.8525Z" fill="#052E58"/>
</svg>
