<svg width="51" height="51" viewBox="0 0 51 51" fill="none" xmlns="http://www.w3.org/2000/svg">
<path d="M24.4234 23.9746C27.512 23.9747 30.2129 25.633 31.689 28.1084C32.6273 27.7367 33.6536 27.5313 34.7369 27.5312C38.7262 27.5312 42.0702 30.2967 42.9615 34.0176C43.2188 35.0917 42.2994 35.9999 41.1949 36H28.4449C27.3408 35.9997 26.4212 35.0926 26.6685 34.0166C26.7945 33.4694 26.9736 32.9435 27.1969 32.4434H21.7848C22.0164 32.9438 22.2024 33.47 22.3336 34.0176C22.5908 35.0917 21.6715 35.9999 20.567 36H7.81698C6.71265 35.9999 5.79316 35.0928 6.04061 34.0166C6.89698 30.2964 10.1202 27.5313 14.109 27.5312C15.2229 27.5313 16.2864 27.7469 17.2603 28.1387C18.6834 25.6463 21.3221 23.9747 24.4234 23.9746ZM14.0982 17.5566C16.7485 17.5568 18.8969 19.7052 18.8971 22.3555C18.897 25.0058 16.7485 27.1541 14.0982 27.1543C11.4478 27.1543 9.29845 25.0059 9.29842 22.3555C9.29854 19.7051 11.4479 17.5566 14.0982 17.5566ZM34.7262 17.5566C37.3764 17.5568 39.5249 19.7052 39.525 22.3555C39.525 25.0058 37.3764 27.1541 34.7262 27.1543C32.0759 27.1541 29.9264 25.0058 29.9264 22.3555C29.9265 19.7052 32.076 17.5568 34.7262 17.5566ZM24.4127 14C27.0628 14.0003 29.2114 16.1487 29.2115 18.7988C29.2115 21.4491 27.0628 23.5973 24.4127 23.5977C21.7622 23.5977 19.6129 21.4493 19.6129 18.7988C19.613 16.1485 21.7623 14 24.4127 14Z" fill="#052E58"/>
</svg>
